<?xml version="1.0" encoding="utf-8" standalone="no"?>
<!DOCTYPE svg PUBLIC "-//W3C//DTD SVG 1.1//EN"
  "http://www.w3.org/Graphics/SVG/1.1/DTD/svg11.dtd">
<svg xmlns:xlink="http://www.w3.org/1999/xlink" width="349.2pt" height="347.04pt" viewBox="0 0 349.2 347.04" xmlns="http://www.w3.org/2000/svg" version="1.1">
 <metadata>
  <rdf:RDF xmlns:dc="http://purl.org/dc/elements/1.1/" xmlns:cc="http://creativecommons.org/ns#" xmlns:rdf="http://www.w3.org/1999/02/22-rdf-syntax-ns#">
   <cc:Work>
    <dc:type rdf:resource="http://purl.org/dc/dcmitype/StillImage"/>
    <dc:date>2023-08-10T10:35:31.778033</dc:date>
    <dc:format>image/svg+xml</dc:format>
    <dc:creator>
     <cc:Agent>
      <dc:title>Matplotlib v3.7.1, https://matplotlib.org/</dc:title>
     </cc:Agent>
    </dc:creator>
   </cc:Work>
  </rdf:RDF>
 </metadata>
 <defs>
  <style type="text/css">*{stroke-linejoin: round; stroke-linecap: butt}</style>
 </defs>
 <g id="figure_1">
  <g id="patch_1">
   <path d="M 0 347.04 
L 349.2 347.04 
L 349.2 -0 
L 0 -0 
z
" style="fill: #2980b9"/>
  </g>
  <g id="axes_1">
   <g id="PolyCollection_1">
    <path d="M -88.497 314.301368 
L -88.497 313.153534 
L -83.93256 313.155896 
L -79.35696 313.148507 
L -74.79252 313.136054 
L -70.21692 313.118068 
L -65.64132 313.095698 
L -61.07688 313.070059 
L -56.51244 313.04019 
L -51.93684 313.007777 
L -47.3724 312.971343 
L -42.7968 312.931773 
L -38.2212 312.887531 
L -33.65676 312.839473 
L -29.09232 312.786131 
L -24.51672 312.727985 
L -19.95228 312.665005 
L -15.37668 312.595247 
L -10.80108 312.519072 
L -6.23664 312.437503 
L -1.6722 312.347353 
L 2.9034 312.248543 
L 7.46784 312.140874 
L 12.04344 312.023928 
L 16.61904 311.896399 
L 21.18348 311.754322 
L 25.75908 311.598708 
L 30.32352 311.426515 
L 34.88796 311.237224 
L 39.46356 311.027504 
L 44.028 310.794681 
L 48.6036 310.535782 
L 53.1792 310.247033 
L 57.74364 309.924183 
L 62.30808 309.561419 
L 66.88368 309.152565 
L 71.44812 308.689511 
L 76.02372 308.164799 
L 80.59932 307.566962 
L 85.16376 306.878608 
L 89.7282 306.085757 
L 94.3038 305.164144 
L 98.86824 304.086606 
L 103.44384 302.821334 
L 108.01944 301.318057 
L 112.58388 299.519217 
L 117.14832 297.347155 
L 121.72392 294.693064 
L 126.28836 291.424424 
L 130.86396 287.358429 
L 135.43956 282.254691 
L 140.004 275.844269 
L 144.56844 267.823476 
L 149.14404 257.933611 
L 153.70848 246.08712 
L 158.28408 232.519948 
L 162.85968 217.953267 
L 167.42412 203.669756 
L 171.99972 191.407423 
L 176.56416 182.99393 
L 181.1286 179.88445 
L 185.7042 182.694128 
L 190.2798 190.977106 
L 194.84424 203.395331 
L 199.41984 218.14334 
L 203.98428 233.428094 
L 208.54872 247.880588 
L 213.12432 260.677212 
L 217.69992 271.490923 
L 222.26436 280.366306 
L 226.83996 287.528584 
L 231.4044 293.270369 
L 235.96884 297.880367 
L 240.54444 301.598561 
L 245.12004 304.624962 
L 249.68448 307.11049 
L 254.26008 309.170436 
L 258.82452 310.896413 
L 263.38896 312.354276 
L 267.96456 313.596216 
L 272.529 314.662467 
L 277.1046 315.584307 
L 281.6802 316.386851 
L 286.24464 317.089335 
L 290.80908 317.708365 
L 295.38468 318.25624 
L 299.94912 318.742374 
L 304.52472 319.177151 
L 309.10032 319.56731 
L 313.66476 319.918395 
L 318.2292 320.235429 
L 322.8048 320.522958 
L 327.36924 320.784199 
L 331.94484 321.022484 
L 336.52044 321.240769 
L 341.08488 321.440626 
L 345.64932 321.624308 
L 350.22492 321.793856 
L 354.78936 321.950341 
L 359.36496 322.095152 
L 363.94056 322.228941 
L 368.505 322.354098 
L 373.06944 322.470279 
L 377.64504 322.578282 
L 382.20948 322.678602 
L 386.78508 322.770325 
L 391.36068 322.85407 
L 395.92512 322.927679 
L 400.48956 322.988307 
L 405.06516 323.036541 
L 405.06516 324.72 
L 405.06516 324.72 
L 400.48956 324.715459 
L 395.92512 324.711321 
L 391.36068 324.705795 
L 386.78508 324.700008 
L 382.20948 324.69465 
L 377.64504 324.688267 
L 373.06944 324.681598 
L 368.505 324.674467 
L 363.94056 324.666696 
L 359.36496 324.659441 
L 354.78936 324.651271 
L 350.22492 324.642628 
L 345.64932 324.63338 
L 341.08488 324.623895 
L 336.52044 324.613789 
L 331.94484 324.602714 
L 327.36924 324.591294 
L 322.8048 324.57913 
L 318.2292 324.565879 
L 313.66476 324.551834 
L 309.10032 324.536598 
L 304.52472 324.520052 
L 299.94912 324.502497 
L 295.38468 324.484208 
L 290.80908 324.463284 
L 286.24464 324.440647 
L 281.6802 324.416661 
L 277.1046 324.390346 
L 272.529 324.361914 
L 267.96456 324.33069 
L 263.38896 324.296432 
L 258.82452 324.258688 
L 254.26008 324.21669 
L 249.68448 324.171551 
L 245.12004 324.1194 
L 240.54444 324.060251 
L 235.96884 323.99419 
L 231.4044 323.915971 
L 226.83996 323.828268 
L 222.26436 323.725208 
L 217.69992 323.604554 
L 213.12432 323.465401 
L 208.54872 323.296512 
L 203.98428 323.103283 
L 199.41984 322.881589 
L 194.84424 322.619809 
L 190.2798 322.328293 
L 185.7042 322.002648 
L 181.1286 321.645821 
L 176.56416 321.269282 
L 171.99972 320.871255 
L 167.42412 320.451306 
L 162.85968 320.022184 
L 158.28408 319.579723 
L 153.70848 319.12962 
L 149.14404 318.68191 
L 144.56844 318.247111 
L 140.004 317.8338 
L 135.43956 317.45636 
L 130.86396 317.125078 
L 126.28836 316.83172 
L 121.72392 316.582599 
L 117.14832 316.374116 
L 112.58388 316.194705 
L 108.01944 316.043222 
L 103.44384 315.913675 
L 98.86824 315.799797 
L 94.3038 315.702837 
L 89.7282 315.616612 
L 85.16376 315.538541 
L 80.59932 315.469382 
L 76.02372 315.404384 
L 71.44812 315.345891 
L 66.88368 315.293188 
L 62.30808 315.243779 
L 57.74364 315.197576 
L 53.1792 315.153948 
L 48.6036 315.113034 
L 44.028 315.074325 
L 39.46356 315.037591 
L 34.88796 315.002402 
L 30.32352 314.968524 
L 25.75908 314.936788 
L 21.18348 314.905558 
L 16.61904 314.876018 
L 12.04344 314.845547 
L 7.46784 314.816716 
L 2.9034 314.789608 
L -1.6722 314.763569 
L -6.23664 314.737844 
L -10.80108 314.711672 
L -15.37668 314.687494 
L -19.95228 314.663626 
L -24.51672 314.639123 
L -29.09232 314.615403 
L -33.65676 314.592027 
L -38.2212 314.56809 
L -42.7968 314.544681 
L -47.3724 314.520601 
L -51.93684 314.497088 
L -56.51244 314.473003 
L -61.07688 314.449647 
L -65.64132 314.425312 
L -70.21692 314.401192 
L -74.79252 314.376773 
L -79.35696 314.351861 
L -83.93256 314.328023 
L -88.497 314.301368 
z
" clip-path="url(#pf93afad6d7)" style="fill: #e3eef9; fill-opacity: 0.3; stroke: #e3eef9; stroke-opacity: 0.3"/>
   </g>
   <g id="PolyCollection_2">
    <path d="M -88.497 314.301368 
L -88.497 311.772362 
L -83.93256 311.73685 
L -79.35696 311.680442 
L -74.79252 311.608841 
L -70.21692 311.523033 
L -65.64132 311.425407 
L -61.07688 311.317772 
L -56.51244 311.199286 
L -51.93684 311.071332 
L -47.3724 310.931865 
L -42.7968 310.781036 
L -38.2212 310.616444 
L -33.65676 310.437953 
L -29.09232 310.242958 
L -24.51672 310.030643 
L -19.95228 309.799492 
L -15.37668 309.545861 
L -10.80108 309.268144 
L -6.23664 308.965085 
L -1.6722 308.630835 
L 2.9034 308.262205 
L 7.46784 307.855354 
L 12.04344 307.405577 
L 16.61904 306.906499 
L 21.18348 306.348103 
L 25.75908 305.724136 
L 30.32352 305.022773 
L 34.88796 304.232823 
L 39.46356 303.337916 
L 44.028 302.319353 
L 48.6036 301.154292 
L 53.1792 299.814096 
L 57.74364 298.263112 
L 62.30808 296.455521 
L 66.88368 294.333744 
L 71.44812 291.823065 
L 76.02372 288.828967 
L 80.59932 285.225306 
L 85.16376 280.842976 
L 89.7282 275.467609 
L 94.3038 268.813253 
L 98.86824 260.520068 
L 103.44384 250.155074 
L 108.01944 237.230448 
L 112.58388 221.302193 
L 117.14832 202.125801 
L 121.72392 179.897971 
L 126.28836 155.550613 
L 130.86396 130.920871 
L 135.43956 108.681562 
L 140.004 91.926055 
L 144.56844 83.374524 
L 149.14404 84.567838 
L 153.70848 95.362501 
L 158.28408 113.96871 
L 162.85968 137.536091 
L 167.42412 162.992474 
L 171.99972 187.773444 
L 176.56416 210.176236 
L 181.1286 229.407901 
L 185.7042 245.360661 
L 190.2798 258.317619 
L 194.84424 268.7396 
L 199.41984 277.113984 
L 203.98428 283.858955 
L 208.54872 289.336545 
L 213.12432 293.825197 
L 217.69992 297.529724 
L 222.26436 300.621232 
L 226.83996 303.22235 
L 231.4044 305.428556 
L 235.96884 307.317729 
L 240.54444 308.943264 
L 245.12004 310.354438 
L 249.68448 311.586061 
L 254.26008 312.666039 
L 258.82452 313.620805 
L 263.38896 314.467634 
L 267.96456 315.222383 
L 272.529 315.89795 
L 277.1046 316.504905 
L 281.6802 317.052547 
L 286.24464 317.547929 
L 290.80908 317.998188 
L 295.38468 318.408214 
L 299.94912 318.781573 
L 304.52472 319.124016 
L 309.10032 319.438581 
L 313.66476 319.727839 
L 318.2292 319.994415 
L 322.8048 320.240898 
L 327.36924 320.468914 
L 331.94484 320.680489 
L 336.52044 320.877502 
L 341.08488 321.060639 
L 345.64932 321.231415 
L 350.22492 321.391255 
L 354.78936 321.540718 
L 359.36496 321.680763 
L 363.94056 321.811681 
L 368.505 321.935558 
L 373.06944 322.051786 
L 377.64504 322.160938 
L 382.20948 322.263291 
L 386.78508 322.357707 
L 391.36068 322.444546 
L 395.92512 322.521355 
L 400.48956 322.584977 
L 405.06516 322.635737 
L 405.06516 324.72 
L 405.06516 324.72 
L 400.48956 324.715459 
L 395.92512 324.711321 
L 391.36068 324.705795 
L 386.78508 324.700008 
L 382.20948 324.69465 
L 377.64504 324.688267 
L 373.06944 324.681598 
L 368.505 324.674467 
L 363.94056 324.666696 
L 359.36496 324.659441 
L 354.78936 324.651271 
L 350.22492 324.642628 
L 345.64932 324.63338 
L 341.08488 324.623895 
L 336.52044 324.613789 
L 331.94484 324.602714 
L 327.36924 324.591294 
L 322.8048 324.57913 
L 318.2292 324.565879 
L 313.66476 324.551834 
L 309.10032 324.536598 
L 304.52472 324.520052 
L 299.94912 324.502497 
L 295.38468 324.484208 
L 290.80908 324.463284 
L 286.24464 324.440647 
L 281.6802 324.416661 
L 277.1046 324.390346 
L 272.529 324.361914 
L 267.96456 324.33069 
L 263.38896 324.296432 
L 258.82452 324.258688 
L 254.26008 324.21669 
L 249.68448 324.171551 
L 245.12004 324.1194 
L 240.54444 324.060251 
L 235.96884 323.99419 
L 231.4044 323.915971 
L 226.83996 323.828268 
L 222.26436 323.725208 
L 217.69992 323.604554 
L 213.12432 323.465401 
L 208.54872 323.296512 
L 203.98428 323.103283 
L 199.41984 322.881589 
L 194.84424 322.619809 
L 190.2798 322.328293 
L 185.7042 322.002648 
L 181.1286 321.645821 
L 176.56416 321.269282 
L 171.99972 320.871255 
L 167.42412 320.451306 
L 162.85968 320.022184 
L 158.28408 319.579723 
L 153.70848 319.12962 
L 149.14404 318.68191 
L 144.56844 318.247111 
L 140.004 317.8338 
L 135.43956 317.45636 
L 130.86396 317.125078 
L 126.28836 316.83172 
L 121.72392 316.582599 
L 117.14832 316.374116 
L 112.58388 316.194705 
L 108.01944 316.043222 
L 103.44384 315.913675 
L 98.86824 315.799797 
L 94.3038 315.702837 
L 89.7282 315.616612 
L 85.16376 315.538541 
L 80.59932 315.469382 
L 76.02372 315.404384 
L 71.44812 315.345891 
L 66.88368 315.293188 
L 62.30808 315.243779 
L 57.74364 315.197576 
L 53.1792 315.153948 
L 48.6036 315.113034 
L 44.028 315.074325 
L 39.46356 315.037591 
L 34.88796 315.002402 
L 30.32352 314.968524 
L 25.75908 314.936788 
L 21.18348 314.905558 
L 16.61904 314.876018 
L 12.04344 314.845547 
L 7.46784 314.816716 
L 2.9034 314.789608 
L -1.6722 314.763569 
L -6.23664 314.737844 
L -10.80108 314.711672 
L -15.37668 314.687494 
L -19.95228 314.663626 
L -24.51672 314.639123 
L -29.09232 314.615403 
L -33.65676 314.592027 
L -38.2212 314.56809 
L -42.7968 314.544681 
L -47.3724 314.520601 
L -51.93684 314.497088 
L -56.51244 314.473003 
L -61.07688 314.449647 
L -65.64132 314.425312 
L -70.21692 314.401192 
L -74.79252 314.376773 
L -79.35696 314.351861 
L -83.93256 314.328023 
L -88.497 314.301368 
z
" clip-path="url(#pf93afad6d7)" style="fill: #b7d4ea; fill-opacity: 0.3; stroke: #b7d4ea; stroke-opacity: 0.3"/>
   </g>
   <g id="line2d_1">
    <path d="M -1 306.142122 
L 2.9034 305.72114 
L 7.46784 305.179513 
L 12.04344 304.583958 
L 16.61904 303.92688 
L 21.18348 303.196866 
L 25.75908 302.386056 
L 30.32352 301.480764 
L 34.88796 300.467645 
L 39.46356 299.327829 
L 44.028 298.039709 
L 48.6036 296.577041 
L 53.1792 294.90718 
L 57.74364 292.989719 
L 62.30808 290.77316 
L 66.88368 288.193121 
L 71.44812 285.166685 
L 76.02372 281.589382 
L 80.59932 277.322885 
L 85.16376 272.183043 
L 89.7282 265.936754 
L 94.3038 258.27456 
L 98.86824 248.806877 
L 103.44384 237.062733 
L 108.01944 222.505284 
L 112.58388 204.626705 
L 117.14832 183.09884 
L 121.72392 158.008436 
L 126.28836 130.143316 
L 130.86396 101.154222 
L 135.43956 73.479893 
L 140.004 49.936524 
L 144.56844 32.95089 
L 149.14404 23.819539 
L 153.70848 22.32 
L 158.28408 26.908935 
L 162.85968 35.467173 
L 167.42412 46.210924 
L 171.99972 58.309612 
L 176.56416 71.900884 
L 181.1286 87.64653 
L 185.7042 106.052141 
L 190.2798 126.966432 
L 194.84424 149.515122 
L 199.41984 172.375734 
L 203.98428 194.183765 
L 208.54872 213.920621 
L 213.12432 231.037007 
L 217.69992 245.416092 
L 222.26436 257.26233 
L 226.83996 266.922665 
L 231.4044 274.782954 
L 235.96884 281.203906 
L 240.54444 286.481574 
L 245.12004 290.860001 
L 249.68448 294.525 
L 254.26008 297.619784 
L 258.82452 300.258529 
L 263.38896 302.525478 
L 267.96456 304.487909 
L 272.529 306.198504 
L 277.1046 307.698866 
L 281.6802 309.022737 
L 286.24464 310.196616 
L 290.80908 311.243269 
L 295.38468 312.180246 
L 299.94912 313.02145 
L 304.52472 313.781115 
L 309.10032 314.469293 
L 313.66476 315.0944 
L 318.2292 315.663966 
L 322.8048 316.184726 
L 327.36924 316.661819 
L 331.94484 317.100259 
L 336.52044 317.504482 
L 341.08488 317.87737 
L 345.64932 318.222343 
L 350.2 318.540739 
" clip-path="url(#pf93afad6d7)" style="fill: none; stroke: #f7fbff; stroke-width: 1.5; stroke-linecap: square"/>
   </g>
   <g id="line2d_2">
    <defs>
     <path id="mbd91d1649c" d="M -4.5 4.5 
L 4.5 -4.5 
M -4.5 -4.5 
L 4.5 4.5 
" style="stroke: #0a549e; stroke-width: 2.5"/>
    </defs>
    <g clip-path="url(#pf93afad6d7)">
     <use xlink:href="#mbd91d1649c" x="-1" y="306.973637" style="fill: #0a549e; stroke: #0a549e; stroke-width: 2.5"/>
     <use xlink:href="#mbd91d1649c" x="2.9034" y="306.554313" style="fill: #0a549e; stroke: #0a549e; stroke-width: 2.5"/>
     <use xlink:href="#mbd91d1649c" x="21.18348" y="303.791871" style="fill: #0a549e; stroke: #0a549e; stroke-width: 2.5"/>
     <use xlink:href="#mbd91d1649c" x="39.46356" y="300.102013" style="fill: #0a549e; stroke: #0a549e; stroke-width: 2.5"/>
     <use xlink:href="#mbd91d1649c" x="57.74364" y="293.755327" style="fill: #0a549e; stroke: #0a549e; stroke-width: 2.5"/>
     <use xlink:href="#mbd91d1649c" x="76.02372" y="281.157666" style="fill: #0a549e; stroke: #0a549e; stroke-width: 2.5"/>
     <use xlink:href="#mbd91d1649c" x="94.3038" y="259.734712" style="fill: #0a549e; stroke: #0a549e; stroke-width: 2.5"/>
     <use xlink:href="#mbd91d1649c" x="112.58388" y="204.469365" style="fill: #0a549e; stroke: #0a549e; stroke-width: 2.5"/>
     <use xlink:href="#mbd91d1649c" x="130.86396" y="102.674853" style="fill: #0a549e; stroke: #0a549e; stroke-width: 2.5"/>
     <use xlink:href="#mbd91d1649c" x="149.14404" y="24.636685" style="fill: #0a549e; stroke: #0a549e; stroke-width: 2.5"/>
     <use xlink:href="#mbd91d1649c" x="167.42412" y="43.24439" style="fill: #0a549e; stroke: #0a549e; stroke-width: 2.5"/>
     <use xlink:href="#mbd91d1649c" x="185.7042" y="106.453822" style="fill: #0a549e; stroke: #0a549e; stroke-width: 2.5"/>
     <use xlink:href="#mbd91d1649c" x="203.98428" y="195.208418" style="fill: #0a549e; stroke: #0a549e; stroke-width: 2.5"/>
     <use xlink:href="#mbd91d1649c" x="222.26436" y="255.645506" style="fill: #0a549e; stroke: #0a549e; stroke-width: 2.5"/>
     <use xlink:href="#mbd91d1649c" x="240.54444" y="285.078552" style="fill: #0a549e; stroke: #0a549e; stroke-width: 2.5"/>
     <use xlink:href="#mbd91d1649c" x="258.82452" y="299.42543" style="fill: #0a549e; stroke: #0a549e; stroke-width: 2.5"/>
     <use xlink:href="#mbd91d1649c" x="277.1046" y="307.085679" style="fill: #0a549e; stroke: #0a549e; stroke-width: 2.5"/>
     <use xlink:href="#mbd91d1649c" x="295.38468" y="312.465345" style="fill: #0a549e; stroke: #0a549e; stroke-width: 2.5"/>
     <use xlink:href="#mbd91d1649c" x="313.66476" y="315.310298" style="fill: #0a549e; stroke: #0a549e; stroke-width: 2.5"/>
     <use xlink:href="#mbd91d1649c" x="331.94484" y="317.300444" style="fill: #0a549e; stroke: #0a549e; stroke-width: 2.5"/>
     <use xlink:href="#mbd91d1649c" x="350.22492" y="318.930846" style="fill: #0a549e; stroke: #0a549e; stroke-width: 2.5"/>
     <use xlink:href="#mbd91d1649c" x="368.505" y="319.944072" style="fill: #0a549e; stroke: #0a549e; stroke-width: 2.5"/>
     <use xlink:href="#mbd91d1649c" x="386.78508" y="320.845083" style="fill: #0a549e; stroke: #0a549e; stroke-width: 2.5"/>
     <use xlink:href="#mbd91d1649c" x="405.06516" y="322.076136" style="fill: #0a549e; stroke: #0a549e; stroke-width: 2.5"/>
    </g>
   </g>
   <g id="line2d_3">
    <path d="M -1 312.332837 
L 2.9034 312.248543 
L 7.46784 312.140874 
L 12.04344 312.023928 
L 16.61904 311.896399 
L 21.18348 311.754322 
L 25.75908 311.598708 
L 30.32352 311.426515 
L 34.88796 311.237224 
L 39.46356 311.027504 
L 44.028 310.794681 
L 48.6036 310.535782 
L 53.1792 310.247033 
L 57.74364 309.924183 
L 62.30808 309.561419 
L 66.88368 309.152565 
L 71.44812 308.689511 
L 76.02372 308.164799 
L 80.59932 307.566962 
L 85.16376 306.878608 
L 89.7282 306.085757 
L 94.3038 305.164144 
L 98.86824 304.086606 
L 103.44384 302.821334 
L 108.01944 301.318057 
L 112.58388 299.519217 
L 117.14832 297.347155 
L 121.72392 294.693064 
L 126.28836 291.424424 
L 130.86396 287.358429 
L 135.43956 282.254691 
L 140.004 275.844269 
L 144.56844 267.823476 
L 149.14404 257.933611 
L 153.70848 246.08712 
L 158.28408 232.519948 
L 162.85968 217.953267 
L 167.42412 203.669756 
L 171.99972 191.407423 
L 176.56416 182.99393 
L 181.1286 179.88445 
L 185.7042 182.694128 
L 190.2798 190.977106 
L 194.84424 203.395331 
L 199.41984 218.14334 
L 203.98428 233.428094 
L 208.54872 247.880588 
L 213.12432 260.677212 
L 217.69992 271.490923 
L 222.26436 280.366306 
L 226.83996 287.528584 
L 231.4044 293.270369 
L 235.96884 297.880367 
L 240.54444 301.598561 
L 245.12004 304.624962 
L 249.68448 307.11049 
L 254.26008 309.170436 
L 258.82452 310.896413 
L 263.38896 312.354276 
L 267.96456 313.596216 
L 272.529 314.662467 
L 277.1046 315.584307 
L 281.6802 316.386851 
L 286.24464 317.089335 
L 290.80908 317.708365 
L 295.38468 318.25624 
L 299.94912 318.742374 
L 304.52472 319.177151 
L 309.10032 319.56731 
L 313.66476 319.918395 
L 318.2292 320.235429 
L 322.8048 320.522958 
L 327.36924 320.784199 
L 331.94484 321.022484 
L 336.52044 321.240769 
L 341.08488 321.440626 
L 345.64932 321.624308 
L 350.2 321.792933 
" clip-path="url(#pf93afad6d7)" style="fill: none; stroke: #e3eef9; stroke-width: 1.5; stroke-linecap: square"/>
   </g>
   <g id="line2d_4">
    <path d="M -1 308.576679 
L 2.9034 308.262205 
L 7.46784 307.855354 
L 12.04344 307.405577 
L 16.61904 306.906499 
L 21.18348 306.348103 
L 25.75908 305.724136 
L 30.32352 305.022773 
L 34.88796 304.232823 
L 39.46356 303.337916 
L 44.028 302.319353 
L 48.6036 301.154292 
L 53.1792 299.814096 
L 57.74364 298.263112 
L 62.30808 296.455521 
L 66.88368 294.333744 
L 71.44812 291.823065 
L 76.02372 288.828967 
L 80.59932 285.225306 
L 85.16376 280.842976 
L 89.7282 275.467609 
L 94.3038 268.813253 
L 98.86824 260.520068 
L 103.44384 250.155074 
L 108.01944 237.230448 
L 112.58388 221.302193 
L 117.14832 202.125801 
L 121.72392 179.897971 
L 126.28836 155.550613 
L 130.86396 130.920871 
L 135.43956 108.681562 
L 140.004 91.926055 
L 144.56844 83.374524 
L 149.14404 84.567838 
L 153.70848 95.362501 
L 158.28408 113.96871 
L 162.85968 137.536091 
L 167.42412 162.992474 
L 171.99972 187.773444 
L 176.56416 210.176236 
L 181.1286 229.407901 
L 185.7042 245.360661 
L 190.2798 258.317619 
L 194.84424 268.7396 
L 199.41984 277.113984 
L 203.98428 283.858955 
L 208.54872 289.336545 
L 213.12432 293.825197 
L 217.69992 297.529724 
L 222.26436 300.621232 
L 226.83996 303.22235 
L 231.4044 305.428556 
L 235.96884 307.317729 
L 240.54444 308.943264 
L 245.12004 310.354438 
L 249.68448 311.586061 
L 254.26008 312.666039 
L 258.82452 313.620805 
L 263.38896 314.467634 
L 267.96456 315.222383 
L 272.529 315.89795 
L 277.1046 316.504905 
L 281.6802 317.052547 
L 286.24464 317.547929 
L 290.80908 317.998188 
L 295.38468 318.408214 
L 299.94912 318.781573 
L 304.52472 319.124016 
L 309.10032 319.438581 
L 313.66476 319.727839 
L 318.2292 319.994415 
L 322.8048 320.240898 
L 327.36924 320.468914 
L 331.94484 320.680489 
L 336.52044 320.877502 
L 341.08488 321.060639 
L 345.64932 321.231415 
L 350.2 321.390384 
" clip-path="url(#pf93afad6d7)" style="fill: none; stroke: #b7d4ea; stroke-width: 1.5; stroke-linecap: square"/>
   </g>
   <g id="line2d_5">
    <path d="M -1 314.767394 
L 2.9034 314.789608 
L 7.46784 314.816716 
L 12.04344 314.845547 
L 16.61904 314.876018 
L 21.18348 314.905558 
L 25.75908 314.936788 
L 30.32352 314.968524 
L 34.88796 315.002402 
L 39.46356 315.037591 
L 44.028 315.074325 
L 48.6036 315.113034 
L 53.1792 315.153948 
L 57.74364 315.197576 
L 62.30808 315.243779 
L 66.88368 315.293188 
L 71.44812 315.345891 
L 76.02372 315.404384 
L 80.59932 315.469382 
L 85.16376 315.538541 
L 89.7282 315.616612 
L 94.3038 315.702837 
L 98.86824 315.799797 
L 103.44384 315.913675 
L 108.01944 316.043222 
L 112.58388 316.194705 
L 117.14832 316.374116 
L 121.72392 316.582599 
L 126.28836 316.83172 
L 130.86396 317.125078 
L 135.43956 317.45636 
L 140.004 317.8338 
L 144.56844 318.247111 
L 149.14404 318.68191 
L 153.70848 319.12962 
L 158.28408 319.579723 
L 162.85968 320.022184 
L 167.42412 320.451306 
L 171.99972 320.871255 
L 176.56416 321.269282 
L 181.1286 321.645821 
L 185.7042 322.002648 
L 190.2798 322.328293 
L 194.84424 322.619809 
L 199.41984 322.881589 
L 203.98428 323.103283 
L 208.54872 323.296512 
L 213.12432 323.465401 
L 217.69992 323.604554 
L 222.26436 323.725208 
L 226.83996 323.828268 
L 231.4044 323.915971 
L 235.96884 323.99419 
L 240.54444 324.060251 
L 245.12004 324.1194 
L 249.68448 324.171551 
L 254.26008 324.21669 
L 258.82452 324.258688 
L 263.38896 324.296432 
L 267.96456 324.33069 
L 272.529 324.361914 
L 277.1046 324.390346 
L 281.6802 324.416661 
L 286.24464 324.440647 
L 290.80908 324.463284 
L 295.38468 324.484208 
L 299.94912 324.502497 
L 304.52472 324.520052 
L 309.10032 324.536598 
L 313.66476 324.551834 
L 318.2292 324.565879 
L 322.8048 324.57913 
L 327.36924 324.591294 
L 331.94484 324.602714 
L 336.52044 324.613789 
L 341.08488 324.623895 
L 345.64932 324.63338 
L 350.2 324.642578 
" clip-path="url(#pf93afad6d7)" style="fill: none; stroke: #6aaed6; stroke-width: 1.5; stroke-linecap: square"/>
   </g>
  </g>
 </g>
 <defs>
  <clipPath id="pf93afad6d7">
   <rect x="7.2" y="7.2" width="334.8" height="332.64"/>
  </clipPath>
 </defs>
</svg>
