<?xml version="1.0" encoding="UTF-8" standalone="no"?>
<!-- Created with Inkscape (http://www.inkscape.org/) -->

<svg
   width="210mm"
   height="297mm"
   viewBox="0 0 210 297"
   version="1.1"
   id="svg8"
   inkscape:version="1.1.2 (0a00cf5339, 2022-02-04)"
   sodipodi:docname="icon.svg"
   xmlns:inkscape="http://www.inkscape.org/namespaces/inkscape"
   xmlns:sodipodi="http://sodipodi.sourceforge.net/DTD/sodipodi-0.dtd"
   xmlns:xlink="http://www.w3.org/1999/xlink"
   xmlns="http://www.w3.org/2000/svg"
   xmlns:svg="http://www.w3.org/2000/svg"
   xmlns:rdf="http://www.w3.org/1999/02/22-rdf-syntax-ns#"
   xmlns:cc="http://creativecommons.org/ns#"
   xmlns:dc="http://purl.org/dc/elements/1.1/">
  <defs
     id="defs2">
    <style
       type="text/css"
       id="style4011">*{stroke-linejoin: round; stroke-linecap: butt}</style>
    <path
       id="m588e29bb06"
       d="M -4.5 4.5  L 4.5 -4.5  M -4.5 -4.5  L 4.5 4.5  "
       style="stroke: #0a549e; stroke-width: 2.5" />
    <clipPath
       id="p4c3b914b17">
      <rect
         x="7.2"
         y="7.2"
         width="334.8"
         height="332.64"
         id="rect4092" />
    </clipPath>
    <style
       type="text/css"
       id="style7862">*{stroke-linejoin: round; stroke-linecap: butt}</style>
    <path
       id="mdc5a013a2e"
       d="M -2 2  L 2 -2  M -2 -2  L 2 2  "
       style="stroke: #0a549e; stroke-width: 2.5" />
    <clipPath
       id="pe3db9eb928">
      <rect
         x="7.2"
         y="7.2"
         width="111.6"
         height="110.88"
         id="rect7945" />
    </clipPath>
  </defs>
  <sodipodi:namedview
     id="base"
     pagecolor="#ffffff"
     bordercolor="#666666"
     borderopacity="1.0"
     inkscape:pageopacity="0.0"
     inkscape:pageshadow="2"
     inkscape:zoom="2.8"
     inkscape:cx="164.64286"
     inkscape:cy="622.32143"
     inkscape:document-units="mm"
     inkscape:current-layer="g8269"
     showgrid="false"
     inkscape:window-width="1846"
     inkscape:window-height="1016"
     inkscape:window-x="0"
     inkscape:window-y="0"
     inkscape:window-maximized="1"
     inkscape:pagecheckerboard="0" />
  <metadata
     id="metadata5">
    <rdf:RDF>
      <cc:Work
         rdf:about="">
        <dc:format>image/svg+xml</dc:format>
        <dc:type
           rdf:resource="http://purl.org/dc/dcmitype/StillImage" />
        <dc:title />
      </cc:Work>
    </rdf:RDF>
  </metadata>
  <g
     inkscape:label="Layer 1"
     inkscape:groupmode="layer"
     id="layer1">
    <rect
       style="opacity:1;fill:#2980b9;fill-opacity:1;stroke:none;stroke-width:0.0587674;stroke-miterlimit:2;stroke-dasharray:none;stroke-opacity:1"
       id="rect819"
       width="52.916668"
       height="11.1125"
       x="19.181984"
       y="153.64183"
       inkscape:export-xdpi="96"
       inkscape:export-ydpi="96"
       inkscape:export-filename="/home/lab/lmfitxps/docs/src/logo.png" />
    <text
       xml:space="preserve"
       style="font-style:normal;font-variant:normal;font-weight:normal;font-stretch:normal;font-size:10.5833px;line-height:1.25;font-family:latex;-inkscape-font-specification:latex;letter-spacing:0px;word-spacing:0px;fill:#000000;fill-opacity:1;stroke:none;stroke-width:0.264583"
       x="55.940475"
       y="98.184517"
       id="text4526"><tspan
         sodipodi:role="line"
         id="tspan4524"
         x="55.940475"
         y="98.184517"
         style="stroke-width:0.264583">++</tspan></text>
    <flowRoot
       xml:space="preserve"
       id="flowRoot4528"
       style="font-style:normal;font-variant:normal;font-weight:normal;font-stretch:normal;font-size:40px;line-height:1.25;font-family:latex;-inkscape-font-specification:latex;letter-spacing:0px;word-spacing:0px;fill:#000000;fill-opacity:1;stroke:none"><flowRegion
         id="flowRegion4530"><rect
           id="rect4532"
           width="577.14288"
           height="91.428574"
           x="45.714287"
           y="656.80542" /></flowRegion><flowPara
         id="flowPara4534" /></flowRoot>
    <rect
       style="opacity:1;fill:#2980b9;fill-opacity:1;stroke:none;stroke-width:0.02051854;stroke-miterlimit:2;stroke-dasharray:none;stroke-opacity:1"
       id="rect819-5"
       width="8.4666662"
       height="8.4666662"
       x="52.066223"
       y="129.96088"
       inkscape:export-xdpi="96"
       inkscape:export-ydpi="96" />
    <text
       xml:space="preserve"
       style="font-style:normal;font-variant:normal;font-weight:normal;font-stretch:normal;font-size:10.5833px;line-height:1.25;font-family:latex;-inkscape-font-specification:latex;letter-spacing:0px;word-spacing:0px;fill:#000000;fill-opacity:1;stroke:none;stroke-width:0.264583"
       x="52.507366"
       y="136.84402"
       id="text817-6"
       inkscape:export-xdpi="96"
       inkscape:export-ydpi="96"><tspan
         sodipodi:role="line"
         id="tspan815-8"
         x="52.507366"
         y="136.84402"
         style="font-style:normal;font-variant:normal;font-weight:500;font-stretch:normal;font-size:4.93889px;font-family:'CMU Typewriter Text';-inkscape-font-specification:'CMU Typewriter Text Medium';fill:#fcfcfc;fill-opacity:1;stroke-width:0.264583">xps</tspan></text>
    <text
       xml:space="preserve"
       style="font-style:normal;font-variant:normal;font-weight:normal;font-stretch:normal;font-size:10.5833px;line-height:1.25;font-family:latex;-inkscape-font-specification:latex;letter-spacing:0px;word-spacing:0px;fill:#000000;fill-opacity:1;stroke:none;stroke-width:0.264583"
       x="53.5564"
       y="133.59059"
       id="text817-6-8"
       inkscape:export-xdpi="96"
       inkscape:export-ydpi="96"><tspan
         sodipodi:role="line"
         id="tspan815-8-7"
         x="53.5564"
         y="133.59059"
         style="font-style:normal;font-variant:normal;font-weight:500;font-stretch:normal;font-size:4.93889px;font-family:'CMU Typewriter Text';-inkscape-font-specification:'CMU Typewriter Text Medium';fill:#fcfcfc;fill-opacity:1;stroke-width:0.264583">lm</tspan></text>
    <circle
       cx="46.470036"
       cy="183.38046"
       r="13.229169"
       style="fill:#3776ab;stroke-width:0.0258382"
       id="circle8208" />
    <g
       id="g8269"
       transform="translate(-0.20826516,-0.57672599)"
       inkscape:export-filename="/home/lab/lmfitxps/docs/src/logo.png"
       inkscape:export-xdpi="96"
       inkscape:export-ydpi="96">
      <g
         id="axes_1-1"
         transform="matrix(0.09578544,0,0,0.09578544,19.373553,153.78003)">
        <g
           id="PolyCollection_1-9">
          <path
             d="m -24.699,109.56712 v -0.38261 l 1.52148,7.9e-4 1.5252,-0.002 1.52148,-0.004 1.5252,-0.006 1.5252,-0.007 1.52148,-0.009 1.52148,-0.01 1.5252,-0.0108 1.52148,-0.0122 1.5252,-0.0132 1.5252,-0.0148 1.52148,-0.016 1.52148,-0.0178 1.5252,-0.0194 1.52148,-0.021 1.5252,-0.0233 1.5252,-0.0254 1.52148,-0.0272 1.52148,-0.0301 1.5252,-0.0329 1.52148,-0.0359 1.5252,-0.039 1.5252,-0.0425 1.52148,-0.0474 1.5252,-0.0519 1.52148,-0.0574 1.52148,-0.0631 1.5252,-0.0699 1.52148,-0.0776 1.5252,-0.0863 1.5252,-0.0962 1.52148,-0.10762 1.52148,-0.12092 1.5252,-0.13629 1.52148,-0.15435 1.5252,-0.1749 1.5252,-0.19928 1.52148,-0.22945 1.52148,-0.26428 1.5252,-0.30721 1.52148,-0.35918 1.5252,-0.42176 1.5252,-0.50109 1.52148,-0.59961 1.52148,-0.72402 1.5252,-0.8847 1.52148,-1.08955 1.5252,-1.35533 1.5252,-1.701243 1.52148,-2.136807 1.52148,-2.673598 1.5252,-3.296622 1.52148,-3.94883 1.5252,-4.522391 1.5252,-4.85556 1.52148,-4.76117 1.5252,-4.087445 1.52148,-2.804497 1.52148,-1.036494 1.5252,0.93656 1.5252,2.760992 1.52148,4.139409 1.5252,4.916003 1.52148,5.094918 1.52148,4.817498 1.5252,4.265541 1.5252,3.60457 1.52148,2.958461 1.5252,2.387425 1.52148,1.91393 1.52148,1.53667 1.5252,1.23939 1.5252,1.0088 1.52148,0.82851 1.5252,0.68665 1.52148,0.57533 1.52148,0.48595 1.5252,0.41398 1.52148,0.35542 1.5252,0.30728 1.5252,0.26751 1.52148,0.23416 1.52148,0.20635 1.5252,0.18262 1.52148,0.16205 1.5252,0.14492 1.5252,0.13006 1.52148,0.11703 1.52148,0.10567 1.5252,0.0958 1.52148,0.0871 1.5252,0.0794 1.5252,0.0728 1.52148,0.0666 1.52148,0.0612 1.5252,0.0565 1.52148,0.0522 1.5252,0.0483 1.5252,0.0446 1.52148,0.0417 1.52148,0.0387 1.5252,0.036 1.52148,0.0334 1.5252,0.0306 1.5252,0.0279 1.52148,0.0245 1.52148,0.0202 1.5252,0.0161 v 0.56115 0 l -1.5252,-0.002 -1.52148,-0.001 -1.52148,-0.002 -1.5252,-0.002 -1.5252,-0.002 -1.52148,-0.002 -1.5252,-0.002 -1.52148,-0.002 -1.52148,-0.003 -1.5252,-0.002 -1.5252,-0.003 -1.52148,-0.003 -1.5252,-0.003 -1.52148,-0.003 -1.52148,-0.003 -1.5252,-0.004 -1.5252,-0.004 -1.52148,-0.004 -1.5252,-0.004 -1.52148,-0.005 -1.52148,-0.005 -1.5252,-0.006 -1.5252,-0.006 -1.52148,-0.006 -1.5252,-0.007 -1.52148,-0.008 -1.52148,-0.008 -1.5252,-0.009 -1.5252,-0.009 -1.52148,-0.0104 -1.5252,-0.0114 -1.52148,-0.0126 -1.52148,-0.014 -1.5252,-0.0151 -1.52148,-0.0174 -1.5252,-0.0197 -1.5252,-0.022 -1.52148,-0.0261 -1.52148,-0.0292 -1.5252,-0.0344 -1.52148,-0.0402 -1.5252,-0.0464 -1.5252,-0.0563 -1.52148,-0.0644 -1.52148,-0.0739 -1.5252,-0.0873 -1.52148,-0.0972 -1.5252,-0.10854 -1.5252,-0.11895 -1.52148,-0.12551 -1.52148,-0.13267 -1.5252,-0.13999 -1.52148,-0.14304 -1.5252,-0.14749 -1.5252,-0.15003 -1.52148,-0.14924 -1.5252,-0.14493 -1.52148,-0.13777 -1.52148,-0.12581 -1.5252,-0.11043 -1.5252,-0.0978 -1.52148,-0.083 -1.5252,-0.0695 -1.52148,-0.0598 -1.52148,-0.0505 -1.5252,-0.0432 -1.5252,-0.038 -1.52148,-0.0323 -1.5252,-0.0287 -1.52148,-0.026 -1.52148,-0.023 -1.5252,-0.0217 -1.5252,-0.0195 -1.52148,-0.0176 -1.5252,-0.0165 -1.52148,-0.0154 -1.52148,-0.0145 -1.5252,-0.0136 -1.5252,-0.0129 -1.52148,-0.0123 -1.5252,-0.0117 -1.52148,-0.0113 -1.52148,-0.0106 -1.5252,-0.0104 -1.52148,-0.01 -1.5252,-0.0101 -1.5252,-0.01 -1.52148,-0.009 -1.5252,-0.009 -1.52148,-0.009 -1.52148,-0.009 -1.5252,-0.008 -1.5252,-0.008 -1.52148,-0.008 -1.5252,-0.008 -1.52148,-0.008 -1.52148,-0.008 -1.5252,-0.008 -1.5252,-0.008 -1.52148,-0.008 -1.5252,-0.008 -1.52148,-0.008 -1.52148,-0.008 -1.5252,-0.008 -1.5252,-0.008 -1.52148,-0.008 -1.5252,-0.008 z"
             clip-path="url(#pe3db9eb928)"
             style="fill:#e3eef9;fill-opacity:0.3;stroke:#e3eef9;stroke-opacity:0.3"
             id="path7869" />
        </g>
        <g
           id="PolyCollection_2-0">
          <path
             d="m -24.699,109.56712 v -0.843 l 1.52148,-0.0118 1.5252,-0.0188 1.52148,-0.0239 1.5252,-0.0286 1.5252,-0.0325 1.52148,-0.0359 1.52148,-0.0395 1.5252,-0.0427 1.52148,-0.0465 1.5252,-0.0503 1.5252,-0.0549 1.52148,-0.0595 1.52148,-0.065 1.5252,-0.0708 1.52148,-0.077 1.5252,-0.0846 1.5252,-0.0926 1.52148,-0.10102 1.52148,-0.11141 1.5252,-0.12288 1.52148,-0.13562 1.5252,-0.14992 1.5252,-0.16636 1.52148,-0.18614 1.5252,-0.20798 1.52148,-0.23379 1.52148,-0.26332 1.5252,-0.2983 1.52148,-0.33952 1.5252,-0.38836 1.5252,-0.44673 1.52148,-0.51699 1.52148,-0.60253 1.5252,-0.70726 1.52148,-0.8369 1.5252,-0.99803 1.5252,-1.201218 1.52148,-1.460777 1.52148,-1.791789 1.5252,-2.218118 1.52148,-2.764395 1.5252,-3.454998 1.5252,-4.308209 1.52148,-5.309418 1.52148,-6.392131 1.5252,-7.409277 1.52148,-8.115786 1.5252,-8.209914 1.5252,-7.413103 1.52148,-5.585169 1.52148,-2.85051 1.5252,0.397771 1.52148,3.598221 1.5252,6.20207 1.5252,7.855794 1.52148,8.485461 1.5252,8.260323 1.52148,7.467597 1.52148,6.410555 1.5252,5.317587 1.5252,4.318986 1.52148,3.473994 1.5252,2.791461 1.52148,2.248324 1.52148,1.825858 1.5252,1.49622 1.5252,1.23484 1.52148,1.03051 1.5252,0.86704 1.52148,0.7354 1.52148,0.62972 1.5252,0.54185 1.5252,0.47039 1.52148,0.41054 1.5252,0.35999 1.52148,0.31826 1.52148,0.28228 1.5252,0.25158 1.52148,0.22519 1.5252,0.20232 1.5252,0.18254 1.52148,0.16513 1.52148,0.15009 1.5252,0.13667 1.52148,0.12445 1.5252,0.11415 1.5252,0.10486 1.52148,0.0964 1.52148,0.0888 1.5252,0.0822 1.52148,0.076 1.5252,0.0705 1.5252,0.0657 1.52148,0.061 1.52148,0.0569 1.5252,0.0533 1.52148,0.0498 1.5252,0.0467 1.5252,0.0436 1.52148,0.0413 1.52148,0.0387 1.5252,0.0364 1.52148,0.0341 1.5252,0.0315 1.5252,0.0289 1.52148,0.0256 1.52148,0.0212 1.5252,0.0169 v 0.69475 0 l -1.5252,-0.002 -1.52148,-0.001 -1.52148,-0.002 -1.5252,-0.002 -1.5252,-0.002 -1.52148,-0.002 -1.5252,-0.002 -1.52148,-0.002 -1.52148,-0.003 -1.5252,-0.002 -1.5252,-0.003 -1.52148,-0.003 -1.5252,-0.003 -1.52148,-0.003 -1.52148,-0.003 -1.5252,-0.004 -1.5252,-0.004 -1.52148,-0.004 -1.5252,-0.004 -1.52148,-0.005 -1.52148,-0.005 -1.5252,-0.006 -1.5252,-0.006 -1.52148,-0.006 -1.5252,-0.007 -1.52148,-0.008 -1.52148,-0.008 -1.5252,-0.009 -1.5252,-0.009 -1.52148,-0.0104 -1.5252,-0.0114 -1.52148,-0.0126 -1.52148,-0.014 -1.5252,-0.0151 -1.52148,-0.0174 -1.5252,-0.0197 -1.5252,-0.022 -1.52148,-0.0261 -1.52148,-0.0292 -1.5252,-0.0344 -1.52148,-0.0402 -1.5252,-0.0464 -1.5252,-0.0563 -1.52148,-0.0644 -1.52148,-0.0739 -1.5252,-0.0873 -1.52148,-0.0972 -1.5252,-0.10854 -1.5252,-0.11895 -1.52148,-0.12551 -1.52148,-0.13267 -1.5252,-0.13999 -1.52148,-0.14304 -1.5252,-0.14749 -1.5252,-0.15003 -1.52148,-0.14924 -1.5252,-0.14493 -1.52148,-0.13777 -1.52148,-0.12581 -1.5252,-0.11043 -1.5252,-0.0978 -1.52148,-0.083 -1.5252,-0.0695 -1.52148,-0.0598 -1.52148,-0.0505 -1.5252,-0.0432 -1.5252,-0.038 -1.52148,-0.0323 -1.5252,-0.0287 -1.52148,-0.026 -1.52148,-0.023 -1.5252,-0.0217 -1.5252,-0.0195 -1.52148,-0.0176 -1.5252,-0.0165 -1.52148,-0.0154 -1.52148,-0.0145 -1.5252,-0.0136 -1.5252,-0.0129 -1.52148,-0.0123 -1.5252,-0.0117 -1.52148,-0.0113 -1.52148,-0.0106 -1.5252,-0.0104 -1.52148,-0.01 -1.5252,-0.0101 -1.5252,-0.01 -1.52148,-0.009 -1.5252,-0.009 -1.52148,-0.009 -1.52148,-0.009 -1.5252,-0.008 -1.5252,-0.008 -1.52148,-0.008 -1.5252,-0.008 -1.52148,-0.008 -1.52148,-0.008 -1.5252,-0.008 -1.5252,-0.008 -1.52148,-0.008 -1.5252,-0.008 -1.52148,-0.008 -1.52148,-0.008 -1.5252,-0.008 -1.5252,-0.008 -1.52148,-0.008 -1.5252,-0.008 z"
             clip-path="url(#pe3db9eb928)"
             style="fill:#b7d4ea;fill-opacity:0.3;stroke:#b7d4ea;stroke-opacity:0.3"
             id="path7872" />
        </g>
        <g
           id="line2d_1-5">
          <path
             d="m -1,107.33572 0.67444,-0.0512 1.5252,-0.12603 1.52148,-0.13693 1.52148,-0.15004 1.5252,-0.16449 1.52148,-0.18055 1.5252,-0.19851 1.5252,-0.21903 1.52148,-0.24334 1.5252,-0.27027 1.52148,-0.30176 1.52148,-0.33771 1.5252,-0.37994 1.52148,-0.42937 1.5252,-0.48756 1.5252,-0.55662 1.52148,-0.63915 1.52148,-0.73885 1.5252,-0.86002 1.52148,-1.008808 1.5252,-1.192435 1.5252,-1.422165 1.52148,-1.713281 1.52148,-2.082096 1.5252,-2.554065 1.52148,-3.155894 1.5252,-3.914715 1.5252,-4.852483 1.52148,-5.959526 1.52148,-7.175955 1.5252,-8.363468 1.52148,-9.288374 1.5252,-9.663031 1.5252,-9.224776 1.52148,-7.84779 1.52148,-5.661878 1.5252,-3.043784 1.52148,-0.499846 1.5252,1.529645 1.5252,2.852746 1.52148,3.58125 1.5252,4.032896 1.52148,4.530424 1.52148,5.248549 1.5252,6.135204 1.5252,6.97143 1.52148,7.51623 1.5252,7.620204 1.52148,7.269344 1.52148,6.578952 1.5252,5.705462 1.5252,4.793028 1.52148,3.948746 1.5252,3.220112 1.52148,2.620096 1.52148,2.140317 1.5252,1.759225 1.5252,1.45947 1.52148,1.22167 1.5252,1.0316 1.52148,0.87958 1.52148,0.75565 1.5252,0.65414 1.52148,0.5702 1.5252,0.50012 1.5252,0.44129 1.52148,0.39129 1.52148,0.34889 1.5252,0.31232 1.52148,0.2804 1.5252,0.25322 1.5252,0.2294 1.52148,0.20837 1.52148,0.18985 1.5252,0.17359 1.52148,0.15903 1.5252,0.14615 1.5252,0.13474 1.52148,0.12429 1.52148,0.11499 1.5252,0.10672 1.52148,0.0991 1.5252,0.0922 1.5252,0.0858 0.88648,0.0468"
             clip-path="url(#pe3db9eb928)"
             style="fill:none;stroke:#f7fbff;stroke-width:1.5;stroke-linecap:square"
             id="path7875" />
        </g>
        <g
           id="line2d_2-6">
          <defs
             id="defs7879">
            <path
               id="path7966"
               d="m -2,2 4,-4 m -4,0 4,4"
               style="stroke:#0a549e;stroke-width:2.5" />
          </defs>
          <g
             clip-path="url(#pe3db9eb928)"
             id="g7931">
            <use
               xlink:href="#mdc5a013a2e"
               x="-1"
               y="107.6592"
               style="fill:#0a549e;stroke:#0a549e;stroke-width:2.5"
               id="use7881"
               width="100%"
               height="100%" />
            <use
               xlink:href="#mdc5a013a2e"
               x="-0.32556"
               y="107.63935"
               style="fill:#0a549e;stroke:#0a549e;stroke-width:2.5"
               id="use7883"
               width="100%"
               height="100%" />
            <use
               xlink:href="#mdc5a013a2e"
               x="5.7677999"
               y="106.98477"
               style="fill:#0a549e;stroke:#0a549e;stroke-width:2.5"
               id="use7885"
               width="100%"
               height="100%" />
            <use
               xlink:href="#mdc5a013a2e"
               x="11.86116"
               y="106.06396"
               style="fill:#0a549e;stroke:#0a549e;stroke-width:2.5"
               id="use7887"
               width="100%"
               height="100%" />
            <use
               xlink:href="#mdc5a013a2e"
               x="17.954519"
               y="104.83401"
               style="fill:#0a549e;stroke:#0a549e;stroke-width:2.5"
               id="use7889"
               width="100%"
               height="100%" />
            <use
               xlink:href="#mdc5a013a2e"
               x="24.04788"
               y="102.71844"
               style="fill:#0a549e;stroke:#0a549e;stroke-width:2.5"
               id="use7891"
               width="100%"
               height="100%" />
            <use
               xlink:href="#mdc5a013a2e"
               x="30.141239"
               y="98.519218"
               style="fill:#0a549e;stroke:#0a549e;stroke-width:2.5"
               id="use7893"
               width="100%"
               height="100%" />
            <use
               xlink:href="#mdc5a013a2e"
               x="36.2346"
               y="91.378235"
               style="fill:#0a549e;stroke:#0a549e;stroke-width:2.5"
               id="use7895"
               width="100%"
               height="100%" />
            <use
               xlink:href="#mdc5a013a2e"
               x="42.327961"
               y="72.956451"
               style="fill:#0a549e;stroke:#0a549e;stroke-width:2.5"
               id="use7897"
               width="100%"
               height="100%" />
            <use
               xlink:href="#mdc5a013a2e"
               x="48.421322"
               y="39.024952"
               style="fill:#0a549e;stroke:#0a549e;stroke-width:2.5"
               id="use7899"
               width="100%"
               height="100%" />
            <use
               xlink:href="#mdc5a013a2e"
               x="54.514679"
               y="13.012228"
               style="fill:#0a549e;stroke:#0a549e;stroke-width:2.5"
               id="use7901"
               width="100%"
               height="100%" />
            <use
               xlink:href="#mdc5a013a2e"
               x="60.60804"
               y="19.214796"
               style="fill:#0a549e;stroke:#0a549e;stroke-width:2.5"
               id="use7903"
               width="100%"
               height="100%" />
            <use
               xlink:href="#mdc5a013a2e"
               x="66.701401"
               y="40.284607"
               style="fill:#0a549e;stroke:#0a549e;stroke-width:2.5"
               id="use7905"
               width="100%"
               height="100%" />
            <use
               xlink:href="#mdc5a013a2e"
               x="72.794762"
               y="69.869476"
               style="fill:#0a549e;stroke:#0a549e;stroke-width:2.5"
               id="use7907"
               width="100%"
               height="100%" />
            <use
               xlink:href="#mdc5a013a2e"
               x="78.888123"
               y="90.015167"
               style="fill:#0a549e;stroke:#0a549e;stroke-width:2.5"
               id="use7909"
               width="100%"
               height="100%" />
            <use
               xlink:href="#mdc5a013a2e"
               x="84.981483"
               y="99.826187"
               style="fill:#0a549e;stroke:#0a549e;stroke-width:2.5"
               id="use7911"
               width="100%"
               height="100%" />
            <use
               xlink:href="#mdc5a013a2e"
               x="91.074837"
               y="104.60847"
               style="fill:#0a549e;stroke:#0a549e;stroke-width:2.5"
               id="use7913"
               width="100%"
               height="100%" />
            <use
               xlink:href="#mdc5a013a2e"
               x="97.168198"
               y="107.1619"
               style="fill:#0a549e;stroke:#0a549e;stroke-width:2.5"
               id="use7915"
               width="100%"
               height="100%" />
            <use
               xlink:href="#mdc5a013a2e"
               x="103.26156"
               y="108.95512"
               style="fill:#0a549e;stroke:#0a549e;stroke-width:2.5"
               id="use7917"
               width="100%"
               height="100%" />
            <use
               xlink:href="#mdc5a013a2e"
               x="109.35492"
               y="109.90343"
               style="fill:#0a549e;stroke:#0a549e;stroke-width:2.5"
               id="use7919"
               width="100%"
               height="100%" />
            <use
               xlink:href="#mdc5a013a2e"
               x="115.44828"
               y="110.56682"
               style="fill:#0a549e;stroke:#0a549e;stroke-width:2.5"
               id="use7921"
               width="100%"
               height="100%" />
            <use
               xlink:href="#mdc5a013a2e"
               x="121.54164"
               y="111.11028"
               style="fill:#0a549e;stroke:#0a549e;stroke-width:2.5"
               id="use7923"
               width="100%"
               height="100%" />
            <use
               xlink:href="#mdc5a013a2e"
               x="127.635"
               y="111.44802"
               style="fill:#0a549e;stroke:#0a549e;stroke-width:2.5"
               id="use7925"
               width="100%"
               height="100%" />
            <use
               xlink:href="#mdc5a013a2e"
               x="133.72836"
               y="111.74836"
               style="fill:#0a549e;stroke:#0a549e;stroke-width:2.5"
               id="use7927"
               width="100%"
               height="100%" />
            <use
               xlink:href="#mdc5a013a2e"
               x="139.82172"
               y="112.15871"
               style="fill:#0a549e;stroke:#0a549e;stroke-width:2.5"
               id="use7929"
               width="100%"
               height="100%" />
          </g>
        </g>
        <g
           id="line2d_3-7">
          <path
             d="m -1,109.0087 0.67444,-0.0103 1.5252,-0.0254 1.52148,-0.0272 1.52148,-0.0301 1.5252,-0.0329 1.52148,-0.0359 1.5252,-0.039 1.5252,-0.0425 1.52148,-0.0474 1.5252,-0.0519 1.52148,-0.0574 1.52148,-0.0631 1.5252,-0.0699 1.52148,-0.0776 1.5252,-0.0863 1.5252,-0.0962 1.52148,-0.10762 1.52148,-0.12092 1.5252,-0.13629 1.52148,-0.15435 1.5252,-0.1749 1.5252,-0.19928 1.52148,-0.22945 1.52148,-0.26428 1.5252,-0.30721 1.52148,-0.35918 1.5252,-0.42176 1.5252,-0.50109 1.52148,-0.59961 1.52148,-0.72402 1.5252,-0.8847 1.52148,-1.08955 1.5252,-1.35533 1.5252,-1.701243 1.52148,-2.136807 1.52148,-2.673598 1.5252,-3.296622 1.52148,-3.94883 1.5252,-4.522391 1.5252,-4.85556 1.52148,-4.76117 1.5252,-4.087445 1.52148,-2.804497 1.52148,-1.036494 1.5252,0.93656 1.5252,2.760992 1.52148,4.139409 1.5252,4.916003 1.52148,5.094918 1.52148,4.817498 1.5252,4.265541 1.5252,3.60457 1.52148,2.958461 1.5252,2.387425 1.52148,1.91393 1.52148,1.53667 1.5252,1.23939 1.5252,1.0088 1.52148,0.82851 1.5252,0.68665 1.52148,0.57533 1.52148,0.48595 1.5252,0.41398 1.52148,0.35542 1.5252,0.30728 1.5252,0.26751 1.52148,0.23416 1.52148,0.20635 1.5252,0.18262 1.52148,0.16205 1.5252,0.14492 1.5252,0.13006 1.52148,0.11703 1.52148,0.10567 1.5252,0.0958 1.52148,0.0871 1.5252,0.0794 1.5252,0.0728 1.52148,0.0666 1.52148,0.0612 1.5252,0.0565 1.52148,0.0522 1.5252,0.0483 1.5252,0.0446 0.88648,0.0243"
             clip-path="url(#pe3db9eb928)"
             style="fill:none;stroke:#e3eef9;stroke-width:1.5;stroke-linecap:square"
             id="path7934" />
        </g>
        <g
           id="line2d_4-7">
          <path
             d="m -1,108.01934 0.67444,-0.0374 1.5252,-0.0926 1.52148,-0.10102 1.52148,-0.11141 1.5252,-0.12288 1.52148,-0.13562 1.5252,-0.14992 1.5252,-0.16636 1.52148,-0.18614 1.5252,-0.20798 1.52148,-0.23379 1.52148,-0.26332 1.5252,-0.2983 1.52148,-0.33952 1.5252,-0.38836 1.5252,-0.44673 1.52148,-0.51699 1.52148,-0.60253 1.5252,-0.70726 1.52148,-0.8369 1.5252,-0.99803 1.5252,-1.201218 1.52148,-1.460777 1.52148,-1.791789 1.5252,-2.218118 1.52148,-2.764395 1.5252,-3.454998 1.5252,-4.308209 1.52148,-5.309418 1.52148,-6.392131 1.5252,-7.409277 1.52148,-8.115786 1.5252,-8.209914 1.5252,-7.413103 1.52148,-5.585169 1.52148,-2.85051 1.5252,0.397771 1.52148,3.598221 1.5252,6.20207 1.5252,7.855794 1.52148,8.485461 1.5252,8.260323 1.52148,7.467597 1.52148,6.410555 1.5252,5.317587 1.5252,4.318986 1.52148,3.473994 1.5252,2.791461 1.52148,2.248324 1.52148,1.825858 1.5252,1.49622 1.5252,1.23484 1.52148,1.03051 1.5252,0.86704 1.52148,0.7354 1.52148,0.62972 1.5252,0.54185 1.5252,0.47039 1.52148,0.41054 1.5252,0.35999 1.52148,0.31826 1.52148,0.28228 1.5252,0.25158 1.52148,0.22519 1.5252,0.20232 1.5252,0.18254 1.52148,0.16513 1.52148,0.15009 1.5252,0.13667 1.52148,0.12445 1.5252,0.11415 1.5252,0.10486 1.52148,0.0964 1.52148,0.0888 1.5252,0.0822 1.52148,0.076 1.5252,0.0705 1.5252,0.0657 1.52148,0.061 1.52148,0.0569 1.5252,0.0533 1.52148,0.0498 1.5252,0.0467 1.5252,0.0436 0.88648,0.0241"
             clip-path="url(#pe3db9eb928)"
             style="fill:none;stroke:#b7d4ea;stroke-width:1.5;stroke-linecap:square"
             id="path7937" />
        </g>
        <g
           id="line2d_5-4">
          <path
             d="m -1,109.69231 0.67444,0.004 1.5252,0.008 1.52148,0.009 1.52148,0.009 1.5252,0.009 1.52148,0.009 1.5252,0.01 1.5252,0.0101 1.52148,0.01 1.5252,0.0104 1.52148,0.0106 1.52148,0.0113 1.5252,0.0117 1.52148,0.0123 1.5252,0.0129 1.5252,0.0136 1.52148,0.0145 1.52148,0.0154 1.5252,0.0165 1.52148,0.0176 1.5252,0.0195 1.5252,0.0217 1.52148,0.023 1.52148,0.026 1.5252,0.0287 1.52148,0.0323 1.5252,0.038 1.5252,0.0432 1.52148,0.0505 1.52148,0.0598 1.5252,0.0695 1.52148,0.083 1.5252,0.0978 1.5252,0.11043 1.52148,0.12581 1.52148,0.13777 1.5252,0.14493 1.52148,0.14924 1.5252,0.15003 1.5252,0.14749 1.52148,0.14304 1.5252,0.13999 1.52148,0.13267 1.52148,0.12551 1.5252,0.11895 1.5252,0.10854 1.52148,0.0972 1.5252,0.0873 1.52148,0.0739 1.52148,0.0644 1.5252,0.0563 1.5252,0.0464 1.52148,0.0402 1.5252,0.0344 1.52148,0.0292 1.52148,0.0261 1.5252,0.022 1.5252,0.0197 1.52148,0.0174 1.5252,0.0151 1.52148,0.014 1.52148,0.0126 1.5252,0.0114 1.52148,0.0104 1.5252,0.009 1.5252,0.009 1.52148,0.008 1.52148,0.008 1.5252,0.007 1.52148,0.006 1.5252,0.006 1.5252,0.006 1.52148,0.005 1.52148,0.005 1.5252,0.004 1.52148,0.004 1.5252,0.004 1.5252,0.004 1.52148,0.003 1.52148,0.003 1.5252,0.003 1.52148,0.003 1.5252,0.003 1.5252,0.002 0.88648,0.002"
             clip-path="url(#pe3db9eb928)"
             style="fill:none;stroke:#6aaed6;stroke-width:1.5;stroke-linecap:square"
             id="path7940" />
        </g>
      </g>
      <text
         xml:space="preserve"
         style="font-style:normal;font-variant:normal;font-weight:normal;font-stretch:normal;font-size:7.86651px;line-height:1.25;font-family:latex;-inkscape-font-specification:latex;letter-spacing:0px;word-spacing:0px;fill:#000000;fill-opacity:1;stroke:none;stroke-width:0.196663"
         x="29.928375"
         y="161.32845"
         id="text817"
         inkscape:export-xdpi="96"
         inkscape:export-ydpi="96"><tspan
           sodipodi:role="line"
           id="tspan815"
           x="29.928375"
           y="161.32845"
           style="font-style:normal;font-variant:normal;font-weight:500;font-stretch:normal;font-size:7.86651px;font-family:'CMU Typewriter Text';-inkscape-font-specification:'CMU Typewriter Text Medium';fill:#fcfcfc;fill-opacity:1;stroke-width:0.196663">lmfitxps</tspan></text>
      <path
         d="m 67.397854,156.02481 c -1.913671,0 -1.794344,0.82941 -1.794344,0.82941 l 0.0015,0.86033 h 1.826753 v 0.25781 h -2.551561 c 0,0 -1.224219,-0.13848 -1.224219,1.79287 0,1.93135 1.069534,1.86211 1.069534,1.86211 h 0.63789 v -0.8957 c 0,0 -0.03388,-1.06954 1.051856,-1.06954 h 1.812021 c 0,0 1.017973,0.0162 1.017973,-0.98408 v -1.65292 c 0,0 0.153212,-1.00029 -1.847377,-1.00029 z m -1.006188,0.57896 c 0.181202,0 0.32852,0.14732 0.32852,0.32852 0,0.1812 -0.147318,0.32852 -0.32852,0.32852 -0.181202,0 -0.328521,-0.14732 -0.328521,-0.32852 0,-0.1812 0.145845,-0.32852 0.328521,-0.32852 z m 1.060695,6.92104 c 1.913671,0 1.794342,-0.82941 1.794342,-0.82941 l -0.0015,-0.86034 h -1.826744 v -0.25781 h 2.551561 c 0,0 1.224219,0.13848 1.224219,-1.79287 0,-1.93135 -1.069535,-1.86211 -1.069535,-1.86211 h -0.637889 v 0.8957 c 0,0 0.03388,1.06954 -1.051857,1.06954 h -1.812021 c 0,0 -1.017972,-0.0162 -1.017972,0.98408 v 1.65292 c 0,0 -0.151739,1.0003 1.847377,1.0003 z m 1.00766,-0.57897 c -0.181202,0 -0.32852,-0.14731 -0.32852,-0.32851 0,-0.18121 0.147318,-0.32853 0.32852,-0.32853 0.181202,0 0.328521,0.14732 0.328521,0.32853 0,0.18267 -0.147319,0.32851 -0.328521,0.32851 z"
         style="fill:#ffffff;stroke-width:0.0147318"
         id="path8210" />
    </g>
  </g>
</svg>
