<?xml version="1.0" encoding="utf-8" standalone="no"?>
<!DOCTYPE svg PUBLIC "-//W3C//DTD SVG 1.1//EN"
  "http://www.w3.org/Graphics/SVG/1.1/DTD/svg11.dtd">
<svg xmlns:xlink="http://www.w3.org/1999/xlink" width="126pt" height="125.28pt" viewBox="0 0 126 125.28" xmlns="http://www.w3.org/2000/svg" version="1.1">
 <metadata>
  <rdf:RDF xmlns:dc="http://purl.org/dc/elements/1.1/" xmlns:cc="http://creativecommons.org/ns#" xmlns:rdf="http://www.w3.org/1999/02/22-rdf-syntax-ns#">
   <cc:Work>
    <dc:type rdf:resource="http://purl.org/dc/dcmitype/StillImage"/>
    <dc:date>2023-08-10T10:50:28.030521</dc:date>
    <dc:format>image/svg+xml</dc:format>
    <dc:creator>
     <cc:Agent>
      <dc:title>Matplotlib v3.7.1, https://matplotlib.org/</dc:title>
     </cc:Agent>
    </dc:creator>
   </cc:Work>
  </rdf:RDF>
 </metadata>
 <defs>
  <style type="text/css">*{stroke-linejoin: round; stroke-linecap: butt}</style>
 </defs>
 <g id="figure_1">
  <g id="patch_1">
   <path d="M 0 125.28 
L 126 125.28 
L 126 0 
L 0 0 
z
" style="fill: #2980b9"/>
  </g>
  <g id="axes_1">
   <g id="PolyCollection_1">
    <path d="M -24.699 109.567123 
L -24.699 109.184511 
L -23.17752 109.185299 
L -21.65232 109.182836 
L -20.13084 109.178685 
L -18.60564 109.172689 
L -17.08044 109.165233 
L -15.55896 109.156686 
L -14.03748 109.14673 
L -12.51228 109.135926 
L -10.9908 109.123781 
L -9.4656 109.110591 
L -7.9404 109.095844 
L -6.41892 109.079824 
L -4.89744 109.062044 
L -3.37224 109.042662 
L -1.85076 109.021668 
L -0.32556 108.998416 
L 1.19964 108.973024 
L 2.72112 108.945834 
L 4.2426 108.915784 
L 5.7678 108.882848 
L 7.28928 108.846958 
L 8.81448 108.807976 
L 10.33968 108.765466 
L 11.86116 108.718107 
L 13.38636 108.666236 
L 14.90784 108.608838 
L 16.42932 108.545741 
L 17.95452 108.475835 
L 19.476 108.398227 
L 21.0012 108.311927 
L 22.5264 108.215678 
L 24.04788 108.108061 
L 25.56936 107.98714 
L 27.09456 107.850855 
L 28.61604 107.696504 
L 30.14124 107.5216 
L 31.66644 107.322321 
L 33.18792 107.092869 
L 34.7094 106.828586 
L 36.2346 106.521381 
L 37.75608 106.162202 
L 39.28128 105.740445 
L 40.80648 105.239352 
L 42.32796 104.639739 
L 43.84944 103.915718 
L 45.37464 103.031021 
L 46.89612 101.941475 
L 48.42132 100.586143 
L 49.94652 98.884897 
L 51.468 96.74809 
L 52.98948 94.074492 
L 54.51468 90.77787 
L 56.03616 86.82904 
L 57.56136 82.306649 
L 59.08656 77.451089 
L 60.60804 72.689919 
L 62.13324 68.602474 
L 63.65472 65.797977 
L 65.1762 64.761483 
L 66.7014 65.698043 
L 68.2266 68.459035 
L 69.74808 72.598444 
L 71.27328 77.514447 
L 72.79476 82.609365 
L 74.31624 87.426863 
L 75.84144 91.692404 
L 77.36664 95.296974 
L 78.88812 98.255435 
L 80.41332 100.642861 
L 81.9348 102.55679 
L 83.45628 104.093456 
L 84.98148 105.332854 
L 86.50668 106.341654 
L 88.02816 107.170163 
L 89.55336 107.856812 
L 91.07484 108.432138 
L 92.59632 108.918092 
L 94.12152 109.332072 
L 95.643 109.687489 
L 97.1682 109.994769 
L 98.6934 110.262284 
L 100.21488 110.496445 
L 101.73636 110.702788 
L 103.26156 110.885413 
L 104.78304 111.047458 
L 106.30824 111.192384 
L 107.83344 111.322437 
L 109.35492 111.439465 
L 110.8764 111.545143 
L 112.4016 111.640986 
L 113.92308 111.728066 
L 115.44828 111.807495 
L 116.97348 111.880256 
L 118.49496 111.946875 
L 120.01644 112.008103 
L 121.54164 112.064619 
L 123.06312 112.11678 
L 124.58832 112.165051 
L 126.11352 112.209647 
L 127.635 112.251366 
L 129.15648 112.290093 
L 130.68168 112.326094 
L 132.20316 112.359534 
L 133.72836 112.390108 
L 135.25356 112.418023 
L 136.77504 112.44256 
L 138.29652 112.462769 
L 139.82172 112.478847 
L 139.82172 113.04 
L 139.82172 113.04 
L 138.29652 113.038486 
L 136.77504 113.037107 
L 135.25356 113.035265 
L 133.72836 113.033336 
L 132.20316 113.03155 
L 130.68168 113.029422 
L 129.15648 113.027199 
L 127.635 113.024822 
L 126.11352 113.022232 
L 124.58832 113.019814 
L 123.06312 113.01709 
L 121.54164 113.014209 
L 120.01644 113.011127 
L 118.49496 113.007965 
L 116.97348 113.004596 
L 115.44828 113.000905 
L 113.92308 112.997098 
L 112.4016 112.993043 
L 110.8764 112.988626 
L 109.35492 112.983945 
L 107.83344 112.978866 
L 106.30824 112.973351 
L 104.78304 112.967499 
L 103.26156 112.961403 
L 101.73636 112.954428 
L 100.21488 112.946882 
L 98.6934 112.938887 
L 97.1682 112.930115 
L 95.643 112.920638 
L 94.12152 112.91023 
L 92.59632 112.898811 
L 91.07484 112.886229 
L 89.55336 112.87223 
L 88.02816 112.857184 
L 86.50668 112.8398 
L 84.98148 112.820084 
L 83.45628 112.798063 
L 81.9348 112.77199 
L 80.41332 112.742756 
L 78.88812 112.708403 
L 77.36664 112.668185 
L 75.84144 112.6218 
L 74.31624 112.565504 
L 72.79476 112.501094 
L 71.27328 112.427196 
L 69.74808 112.339936 
L 68.2266 112.242764 
L 66.7014 112.134216 
L 65.1762 112.015274 
L 63.65472 111.889761 
L 62.13324 111.757085 
L 60.60804 111.617102 
L 59.08656 111.474061 
L 57.56136 111.326574 
L 56.03616 111.17654 
L 54.51468 111.027303 
L 52.98948 110.88237 
L 51.468 110.7446 
L 49.94652 110.618787 
L 48.42132 110.508359 
L 46.89612 110.410573 
L 45.37464 110.327533 
L 43.84944 110.258039 
L 42.32796 110.198235 
L 40.80648 110.147741 
L 39.28128 110.104558 
L 37.75608 110.066599 
L 36.2346 110.034279 
L 34.7094 110.005537 
L 33.18792 109.979514 
L 31.66644 109.956461 
L 30.14124 109.934795 
L 28.61604 109.915297 
L 27.09456 109.897729 
L 25.56936 109.88126 
L 24.04788 109.865859 
L 22.5264 109.851316 
L 21.0012 109.837678 
L 19.476 109.824775 
L 17.95452 109.81253 
L 16.42932 109.800801 
L 14.90784 109.789508 
L 13.38636 109.778929 
L 11.86116 109.768519 
L 10.33968 109.758673 
L 8.81448 109.748516 
L 7.28928 109.738905 
L 5.7678 109.729869 
L 4.2426 109.72119 
L 2.72112 109.712615 
L 1.19964 109.703891 
L -0.32556 109.695831 
L -1.85076 109.687875 
L -3.37224 109.679708 
L -4.89744 109.671801 
L -6.41892 109.664009 
L -7.9404 109.65603 
L -9.4656 109.648227 
L -10.9908 109.6402 
L -12.51228 109.632363 
L -14.03748 109.624334 
L -15.55896 109.616549 
L -17.08044 109.608437 
L -18.60564 109.600397 
L -20.13084 109.592258 
L -21.65232 109.583954 
L -23.17752 109.576008 
L -24.699 109.567123 
z
" clip-path="url(#pe3db9eb928)" style="fill: #e3eef9; fill-opacity: 0.3; stroke: #e3eef9; stroke-opacity: 0.3"/>
   </g>
   <g id="PolyCollection_2">
    <path d="M -24.699 109.567123 
L -24.699 108.724121 
L -23.17752 108.712283 
L -21.65232 108.693481 
L -20.13084 108.669614 
L -18.60564 108.641011 
L -17.08044 108.608469 
L -15.55896 108.572591 
L -14.03748 108.533095 
L -12.51228 108.490444 
L -10.9908 108.443955 
L -9.4656 108.393679 
L -7.9404 108.338815 
L -6.41892 108.279318 
L -4.89744 108.214319 
L -3.37224 108.143548 
L -1.85076 108.066497 
L -0.32556 107.981954 
L 1.19964 107.889381 
L 2.72112 107.788362 
L 4.2426 107.676945 
L 5.7678 107.554068 
L 7.28928 107.418451 
L 8.81448 107.268526 
L 10.33968 107.102166 
L 11.86116 106.916034 
L 13.38636 106.708045 
L 14.90784 106.474258 
L 16.42932 106.210941 
L 17.95452 105.912639 
L 19.476 105.573118 
L 21.0012 105.184764 
L 22.5264 104.738032 
L 24.04788 104.221037 
L 25.56936 103.618507 
L 27.09456 102.911248 
L 28.61604 102.074355 
L 30.14124 101.076322 
L 31.66644 99.875102 
L 33.18792 98.414325 
L 34.7094 96.622536 
L 36.2346 94.404418 
L 37.75608 91.640023 
L 39.28128 88.185025 
L 40.80648 83.876816 
L 42.32796 78.567398 
L 43.84944 72.175267 
L 45.37464 64.76599 
L 46.89612 56.650204 
L 48.42132 48.44029 
L 49.94652 41.027187 
L 51.468 35.442018 
L 52.98948 32.591508 
L 54.51468 32.989279 
L 56.03616 36.5875 
L 57.56136 42.78957 
L 59.08656 50.645364 
L 60.60804 59.130825 
L 62.13324 67.391148 
L 63.65472 74.858745 
L 65.1762 81.2693 
L 66.7014 86.586887 
L 68.2266 90.905873 
L 69.74808 94.379867 
L 71.27328 97.171328 
L 72.79476 99.419652 
L 74.31624 101.245515 
L 75.84144 102.741732 
L 77.36664 103.976575 
L 78.88812 105.007077 
L 80.41332 105.874117 
L 81.9348 106.609519 
L 83.45628 107.239243 
L 84.98148 107.781088 
L 86.50668 108.251479 
L 88.02816 108.66202 
L 89.55336 109.022013 
L 91.07484 109.340268 
L 92.59632 109.622545 
L 94.12152 109.874128 
L 95.643 110.099317 
L 97.1682 110.301635 
L 98.6934 110.484182 
L 100.21488 110.64931 
L 101.73636 110.799396 
L 103.26156 110.936071 
L 104.78304 111.060524 
L 106.30824 111.174672 
L 107.83344 111.279527 
L 109.35492 111.375946 
L 110.8764 111.464805 
L 112.4016 111.546966 
L 113.92308 111.622971 
L 115.44828 111.693496 
L 116.97348 111.759167 
L 118.49496 111.820213 
L 120.01644 111.877138 
L 121.54164 111.930418 
L 123.06312 111.980239 
L 124.58832 112.026921 
L 126.11352 112.07056 
L 127.635 112.111853 
L 129.15648 112.150595 
L 130.68168 112.186979 
L 132.20316 112.221097 
L 133.72836 112.252569 
L 135.25356 112.281515 
L 136.77504 112.307118 
L 138.29652 112.328326 
L 139.82172 112.345246 
L 139.82172 113.04 
L 139.82172 113.04 
L 138.29652 113.038486 
L 136.77504 113.037107 
L 135.25356 113.035265 
L 133.72836 113.033336 
L 132.20316 113.03155 
L 130.68168 113.029422 
L 129.15648 113.027199 
L 127.635 113.024822 
L 126.11352 113.022232 
L 124.58832 113.019814 
L 123.06312 113.01709 
L 121.54164 113.014209 
L 120.01644 113.011127 
L 118.49496 113.007965 
L 116.97348 113.004596 
L 115.44828 113.000905 
L 113.92308 112.997098 
L 112.4016 112.993043 
L 110.8764 112.988626 
L 109.35492 112.983945 
L 107.83344 112.978866 
L 106.30824 112.973351 
L 104.78304 112.967499 
L 103.26156 112.961403 
L 101.73636 112.954428 
L 100.21488 112.946882 
L 98.6934 112.938887 
L 97.1682 112.930115 
L 95.643 112.920638 
L 94.12152 112.91023 
L 92.59632 112.898811 
L 91.07484 112.886229 
L 89.55336 112.87223 
L 88.02816 112.857184 
L 86.50668 112.8398 
L 84.98148 112.820084 
L 83.45628 112.798063 
L 81.9348 112.77199 
L 80.41332 112.742756 
L 78.88812 112.708403 
L 77.36664 112.668185 
L 75.84144 112.6218 
L 74.31624 112.565504 
L 72.79476 112.501094 
L 71.27328 112.427196 
L 69.74808 112.339936 
L 68.2266 112.242764 
L 66.7014 112.134216 
L 65.1762 112.015274 
L 63.65472 111.889761 
L 62.13324 111.757085 
L 60.60804 111.617102 
L 59.08656 111.474061 
L 57.56136 111.326574 
L 56.03616 111.17654 
L 54.51468 111.027303 
L 52.98948 110.88237 
L 51.468 110.7446 
L 49.94652 110.618787 
L 48.42132 110.508359 
L 46.89612 110.410573 
L 45.37464 110.327533 
L 43.84944 110.258039 
L 42.32796 110.198235 
L 40.80648 110.147741 
L 39.28128 110.104558 
L 37.75608 110.066599 
L 36.2346 110.034279 
L 34.7094 110.005537 
L 33.18792 109.979514 
L 31.66644 109.956461 
L 30.14124 109.934795 
L 28.61604 109.915297 
L 27.09456 109.897729 
L 25.56936 109.88126 
L 24.04788 109.865859 
L 22.5264 109.851316 
L 21.0012 109.837678 
L 19.476 109.824775 
L 17.95452 109.81253 
L 16.42932 109.800801 
L 14.90784 109.789508 
L 13.38636 109.778929 
L 11.86116 109.768519 
L 10.33968 109.758673 
L 8.81448 109.748516 
L 7.28928 109.738905 
L 5.7678 109.729869 
L 4.2426 109.72119 
L 2.72112 109.712615 
L 1.19964 109.703891 
L -0.32556 109.695831 
L -1.85076 109.687875 
L -3.37224 109.679708 
L -4.89744 109.671801 
L -6.41892 109.664009 
L -7.9404 109.65603 
L -9.4656 109.648227 
L -10.9908 109.6402 
L -12.51228 109.632363 
L -14.03748 109.624334 
L -15.55896 109.616549 
L -17.08044 109.608437 
L -18.60564 109.600397 
L -20.13084 109.592258 
L -21.65232 109.583954 
L -23.17752 109.576008 
L -24.699 109.567123 
z
" clip-path="url(#pe3db9eb928)" style="fill: #b7d4ea; fill-opacity: 0.3; stroke: #b7d4ea; stroke-opacity: 0.3"/>
   </g>
   <g id="line2d_1">
    <path d="M -1 107.335723 
L -0.32556 107.284538 
L 1.19964 107.158514 
L 2.72112 107.021581 
L 4.2426 106.87154 
L 5.7678 106.707047 
L 7.28928 106.526504 
L 8.81448 106.327986 
L 10.33968 106.10896 
L 11.86116 105.865622 
L 13.38636 105.595352 
L 14.90784 105.293588 
L 16.42932 104.955882 
L 17.95452 104.575943 
L 19.476 104.14657 
L 21.0012 103.659014 
L 22.5264 103.102393 
L 24.04788 102.46324 
L 25.56936 101.724387 
L 27.09456 100.864374 
L 28.61604 99.855562 
L 30.14124 98.663127 
L 31.66644 97.240962 
L 33.18792 95.527681 
L 34.7094 93.445585 
L 36.2346 90.89152 
L 37.75608 87.735626 
L 39.28128 83.820911 
L 40.80648 78.968428 
L 42.32796 73.008902 
L 43.84944 65.832947 
L 45.37464 57.469479 
L 46.89612 48.181105 
L 48.42132 38.518074 
L 49.94652 29.293298 
L 51.468 21.445508 
L 52.98948 15.78363 
L 54.51468 12.739846 
L 56.03616 12.24 
L 57.56136 13.769645 
L 59.08656 16.622391 
L 60.60804 20.203641 
L 62.13324 24.236537 
L 63.65472 28.766961 
L 65.1762 34.01551 
L 66.7014 40.150714 
L 68.2266 47.122144 
L 69.74808 54.638374 
L 71.27328 62.258578 
L 72.79476 69.527922 
L 74.31624 76.106874 
L 75.84144 81.812336 
L 77.36664 86.605364 
L 78.88812 90.55411 
L 80.41332 93.774222 
L 81.9348 96.394318 
L 83.45628 98.534635 
L 84.98148 100.293858 
L 86.50668 101.753334 
L 88.02816 102.975 
L 89.55336 104.006595 
L 91.07484 104.886176 
L 92.59632 105.641826 
L 94.12152 106.29597 
L 95.643 106.866168 
L 97.1682 107.366289 
L 98.6934 107.807579 
L 100.21488 108.198872 
L 101.73636 108.547756 
L 103.26156 108.860082 
L 104.78304 109.140483 
L 106.30824 109.393705 
L 107.83344 109.623098 
L 109.35492 109.831467 
L 110.8764 110.021322 
L 112.4016 110.194909 
L 113.92308 110.35394 
L 115.44828 110.500086 
L 116.97348 110.634827 
L 118.49496 110.759123 
L 120.01644 110.874114 
L 121.54164 110.980828 
L 123.06312 111.079929 
L 124.58832 111.172158 
L 126.11352 111.257976 
L 127 111.304832 
" clip-path="url(#pe3db9eb928)" style="fill: none; stroke: #f7fbff; stroke-width: 1.5; stroke-linecap: square"/>
   </g>
   <g id="line2d_2">
    <defs>
     <path id="mdc5a013a2e" d="M -2 2 
L 2 -2 
M -2 -2 
L 2 2 
" style="stroke: #0a549e; stroke-width: 2.5"/>
    </defs>
    <g clip-path="url(#pe3db9eb928)">
     <use xlink:href="#mdc5a013a2e" x="-1" y="107.6592" style="fill: #0a549e; stroke: #0a549e; stroke-width: 2.5"/>
     <use xlink:href="#mdc5a013a2e" x="-0.32556" y="107.639352" style="fill: #0a549e; stroke: #0a549e; stroke-width: 2.5"/>
     <use xlink:href="#mdc5a013a2e" x="5.7678" y="106.984771" style="fill: #0a549e; stroke: #0a549e; stroke-width: 2.5"/>
     <use xlink:href="#mdc5a013a2e" x="11.86116" y="106.063957" style="fill: #0a549e; stroke: #0a549e; stroke-width: 2.5"/>
     <use xlink:href="#mdc5a013a2e" x="17.95452" y="104.834004" style="fill: #0a549e; stroke: #0a549e; stroke-width: 2.5"/>
     <use xlink:href="#mdc5a013a2e" x="24.04788" y="102.718442" style="fill: #0a549e; stroke: #0a549e; stroke-width: 2.5"/>
     <use xlink:href="#mdc5a013a2e" x="30.14124" y="98.519222" style="fill: #0a549e; stroke: #0a549e; stroke-width: 2.5"/>
     <use xlink:href="#mdc5a013a2e" x="36.2346" y="91.378237" style="fill: #0a549e; stroke: #0a549e; stroke-width: 2.5"/>
     <use xlink:href="#mdc5a013a2e" x="42.32796" y="72.956455" style="fill: #0a549e; stroke: #0a549e; stroke-width: 2.5"/>
     <use xlink:href="#mdc5a013a2e" x="48.42132" y="39.024951" style="fill: #0a549e; stroke: #0a549e; stroke-width: 2.5"/>
     <use xlink:href="#mdc5a013a2e" x="54.51468" y="13.012228" style="fill: #0a549e; stroke: #0a549e; stroke-width: 2.5"/>
     <use xlink:href="#mdc5a013a2e" x="60.60804" y="19.214797" style="fill: #0a549e; stroke: #0a549e; stroke-width: 2.5"/>
     <use xlink:href="#mdc5a013a2e" x="66.7014" y="40.284607" style="fill: #0a549e; stroke: #0a549e; stroke-width: 2.5"/>
     <use xlink:href="#mdc5a013a2e" x="72.79476" y="69.869473" style="fill: #0a549e; stroke: #0a549e; stroke-width: 2.5"/>
     <use xlink:href="#mdc5a013a2e" x="78.88812" y="90.015169" style="fill: #0a549e; stroke: #0a549e; stroke-width: 2.5"/>
     <use xlink:href="#mdc5a013a2e" x="84.98148" y="99.826184" style="fill: #0a549e; stroke: #0a549e; stroke-width: 2.5"/>
     <use xlink:href="#mdc5a013a2e" x="91.07484" y="104.608477" style="fill: #0a549e; stroke: #0a549e; stroke-width: 2.5"/>
     <use xlink:href="#mdc5a013a2e" x="97.1682" y="107.161893" style="fill: #0a549e; stroke: #0a549e; stroke-width: 2.5"/>
     <use xlink:href="#mdc5a013a2e" x="103.26156" y="108.955115" style="fill: #0a549e; stroke: #0a549e; stroke-width: 2.5"/>
     <use xlink:href="#mdc5a013a2e" x="109.35492" y="109.903433" style="fill: #0a549e; stroke: #0a549e; stroke-width: 2.5"/>
     <use xlink:href="#mdc5a013a2e" x="115.44828" y="110.566815" style="fill: #0a549e; stroke: #0a549e; stroke-width: 2.5"/>
     <use xlink:href="#mdc5a013a2e" x="121.54164" y="111.110282" style="fill: #0a549e; stroke: #0a549e; stroke-width: 2.5"/>
     <use xlink:href="#mdc5a013a2e" x="127.635" y="111.448024" style="fill: #0a549e; stroke: #0a549e; stroke-width: 2.5"/>
     <use xlink:href="#mdc5a013a2e" x="133.72836" y="111.748361" style="fill: #0a549e; stroke: #0a549e; stroke-width: 2.5"/>
     <use xlink:href="#mdc5a013a2e" x="139.82172" y="112.158712" style="fill: #0a549e; stroke: #0a549e; stroke-width: 2.5"/>
    </g>
   </g>
   <g id="line2d_3">
    <path d="M -1 109.008698 
L -0.32556 108.998416 
L 1.19964 108.973024 
L 2.72112 108.945834 
L 4.2426 108.915784 
L 5.7678 108.882848 
L 7.28928 108.846958 
L 8.81448 108.807976 
L 10.33968 108.765466 
L 11.86116 108.718107 
L 13.38636 108.666236 
L 14.90784 108.608838 
L 16.42932 108.545741 
L 17.95452 108.475835 
L 19.476 108.398227 
L 21.0012 108.311927 
L 22.5264 108.215678 
L 24.04788 108.108061 
L 25.56936 107.98714 
L 27.09456 107.850855 
L 28.61604 107.696504 
L 30.14124 107.5216 
L 31.66644 107.322321 
L 33.18792 107.092869 
L 34.7094 106.828586 
L 36.2346 106.521381 
L 37.75608 106.162202 
L 39.28128 105.740445 
L 40.80648 105.239352 
L 42.32796 104.639739 
L 43.84944 103.915718 
L 45.37464 103.031021 
L 46.89612 101.941475 
L 48.42132 100.586143 
L 49.94652 98.884897 
L 51.468 96.74809 
L 52.98948 94.074492 
L 54.51468 90.77787 
L 56.03616 86.82904 
L 57.56136 82.306649 
L 59.08656 77.451089 
L 60.60804 72.689919 
L 62.13324 68.602474 
L 63.65472 65.797977 
L 65.1762 64.761483 
L 66.7014 65.698043 
L 68.2266 68.459035 
L 69.74808 72.598444 
L 71.27328 77.514447 
L 72.79476 82.609365 
L 74.31624 87.426863 
L 75.84144 91.692404 
L 77.36664 95.296974 
L 78.88812 98.255435 
L 80.41332 100.642861 
L 81.9348 102.55679 
L 83.45628 104.093456 
L 84.98148 105.332854 
L 86.50668 106.341654 
L 88.02816 107.170163 
L 89.55336 107.856812 
L 91.07484 108.432138 
L 92.59632 108.918092 
L 94.12152 109.332072 
L 95.643 109.687489 
L 97.1682 109.994769 
L 98.6934 110.262284 
L 100.21488 110.496445 
L 101.73636 110.702788 
L 103.26156 110.885413 
L 104.78304 111.047458 
L 106.30824 111.192384 
L 107.83344 111.322437 
L 109.35492 111.439465 
L 110.8764 111.545143 
L 112.4016 111.640986 
L 113.92308 111.728066 
L 115.44828 111.807495 
L 116.97348 111.880256 
L 118.49496 111.946875 
L 120.01644 112.008103 
L 121.54164 112.064619 
L 123.06312 112.11678 
L 124.58832 112.165051 
L 126.11352 112.209647 
L 127 112.233954 
" clip-path="url(#pe3db9eb928)" style="fill: none; stroke: #e3eef9; stroke-width: 1.5; stroke-linecap: square"/>
   </g>
   <g id="line2d_4">
    <path d="M -1 108.019339 
L -0.32556 107.981954 
L 1.19964 107.889381 
L 2.72112 107.788362 
L 4.2426 107.676945 
L 5.7678 107.554068 
L 7.28928 107.418451 
L 8.81448 107.268526 
L 10.33968 107.102166 
L 11.86116 106.916034 
L 13.38636 106.708045 
L 14.90784 106.474258 
L 16.42932 106.210941 
L 17.95452 105.912639 
L 19.476 105.573118 
L 21.0012 105.184764 
L 22.5264 104.738032 
L 24.04788 104.221037 
L 25.56936 103.618507 
L 27.09456 102.911248 
L 28.61604 102.074355 
L 30.14124 101.076322 
L 31.66644 99.875102 
L 33.18792 98.414325 
L 34.7094 96.622536 
L 36.2346 94.404418 
L 37.75608 91.640023 
L 39.28128 88.185025 
L 40.80648 83.876816 
L 42.32796 78.567398 
L 43.84944 72.175267 
L 45.37464 64.76599 
L 46.89612 56.650204 
L 48.42132 48.44029 
L 49.94652 41.027187 
L 51.468 35.442018 
L 52.98948 32.591508 
L 54.51468 32.989279 
L 56.03616 36.5875 
L 57.56136 42.78957 
L 59.08656 50.645364 
L 60.60804 59.130825 
L 62.13324 67.391148 
L 63.65472 74.858745 
L 65.1762 81.2693 
L 66.7014 86.586887 
L 68.2266 90.905873 
L 69.74808 94.379867 
L 71.27328 97.171328 
L 72.79476 99.419652 
L 74.31624 101.245515 
L 75.84144 102.741732 
L 77.36664 103.976575 
L 78.88812 105.007077 
L 80.41332 105.874117 
L 81.9348 106.609519 
L 83.45628 107.239243 
L 84.98148 107.781088 
L 86.50668 108.251479 
L 88.02816 108.66202 
L 89.55336 109.022013 
L 91.07484 109.340268 
L 92.59632 109.622545 
L 94.12152 109.874128 
L 95.643 110.099317 
L 97.1682 110.301635 
L 98.6934 110.484182 
L 100.21488 110.64931 
L 101.73636 110.799396 
L 103.26156 110.936071 
L 104.78304 111.060524 
L 106.30824 111.174672 
L 107.83344 111.279527 
L 109.35492 111.375946 
L 110.8764 111.464805 
L 112.4016 111.546966 
L 113.92308 111.622971 
L 115.44828 111.693496 
L 116.97348 111.759167 
L 118.49496 111.820213 
L 120.01644 111.877138 
L 121.54164 111.930418 
L 123.06312 111.980239 
L 124.58832 112.026921 
L 126.11352 112.07056 
L 127 112.094619 
" clip-path="url(#pe3db9eb928)" style="fill: none; stroke: #b7d4ea; stroke-width: 1.5; stroke-linecap: square"/>
   </g>
   <g id="line2d_5">
    <path d="M -1 109.692313 
L -0.32556 109.695831 
L 1.19964 109.703891 
L 2.72112 109.712615 
L 4.2426 109.72119 
L 5.7678 109.729869 
L 7.28928 109.738905 
L 8.81448 109.748516 
L 10.33968 109.758673 
L 11.86116 109.768519 
L 13.38636 109.778929 
L 14.90784 109.789508 
L 16.42932 109.800801 
L 17.95452 109.81253 
L 19.476 109.824775 
L 21.0012 109.837678 
L 22.5264 109.851316 
L 24.04788 109.865859 
L 25.56936 109.88126 
L 27.09456 109.897729 
L 28.61604 109.915297 
L 30.14124 109.934795 
L 31.66644 109.956461 
L 33.18792 109.979514 
L 34.7094 110.005537 
L 36.2346 110.034279 
L 37.75608 110.066599 
L 39.28128 110.104558 
L 40.80648 110.147741 
L 42.32796 110.198235 
L 43.84944 110.258039 
L 45.37464 110.327533 
L 46.89612 110.410573 
L 48.42132 110.508359 
L 49.94652 110.618787 
L 51.468 110.7446 
L 52.98948 110.88237 
L 54.51468 111.027303 
L 56.03616 111.17654 
L 57.56136 111.326574 
L 59.08656 111.474061 
L 60.60804 111.617102 
L 62.13324 111.757085 
L 63.65472 111.889761 
L 65.1762 112.015274 
L 66.7014 112.134216 
L 68.2266 112.242764 
L 69.74808 112.339936 
L 71.27328 112.427196 
L 72.79476 112.501094 
L 74.31624 112.565504 
L 75.84144 112.6218 
L 77.36664 112.668185 
L 78.88812 112.708403 
L 80.41332 112.742756 
L 81.9348 112.77199 
L 83.45628 112.798063 
L 84.98148 112.820084 
L 86.50668 112.8398 
L 88.02816 112.857184 
L 89.55336 112.87223 
L 91.07484 112.886229 
L 92.59632 112.898811 
L 94.12152 112.91023 
L 95.643 112.920638 
L 97.1682 112.930115 
L 98.6934 112.938887 
L 100.21488 112.946882 
L 101.73636 112.954428 
L 103.26156 112.961403 
L 104.78304 112.967499 
L 106.30824 112.973351 
L 107.83344 112.978866 
L 109.35492 112.983945 
L 110.8764 112.988626 
L 112.4016 112.993043 
L 113.92308 112.997098 
L 115.44828 113.000905 
L 116.97348 113.004596 
L 118.49496 113.007965 
L 120.01644 113.011127 
L 121.54164 113.014209 
L 123.06312 113.01709 
L 124.58832 113.019814 
L 126.11352 113.022232 
L 127 113.023741 
" clip-path="url(#pe3db9eb928)" style="fill: none; stroke: #6aaed6; stroke-width: 1.5; stroke-linecap: square"/>
   </g>
  </g>
 </g>
 <defs>
  <clipPath id="pe3db9eb928">
   <rect x="7.2" y="7.2" width="111.6" height="110.88"/>
  </clipPath>
 </defs>
</svg>
